<svg height="60" viewBox="0 0 266 60" width="266" xmlns="http://www.w3.org/2000/svg" xmlns:xlink="http://www.w3.org/1999/xlink"><mask id="a" fill="#fff"><path d="m.00957447.02102394h44.00441493v28.09615696h-44.00441493z" fill="none"/></mask><g fill="none" fill-rule="evenodd" transform=""><g fill="#0a0b09"><path d="m237 6.33861702h5.870745v-6.19356383h-5.870745z"/><path d="m85.9712234 34.1120745c5.5356383-.0164362 9.6108511-4.1203724 9.6304787-9.6984575.0196277-5.5898936-4.1910638-9.8123936-9.7410638-9.7704255-5.4995745.0424468-9.6552128 4.2360638-9.6507447 9.7383511.0039894 5.6023404 4.1621809 9.7468085 9.7613298 9.7305319m-15.5101596-24.65265961c1.2825.03654256 2.839149-.35585106 3.7670745.23664894.8680851.55404257 1.0688298 2.15313827 1.5612766 3.29234047 7.5919149-6.78287239 17.623883-4.25377664 22.0161702.6769148 5.1689359 5.8011703 5.3146279 15.1812766.2754255 21.1295745-4.4465425 5.2492021-13.7645744 7.4872341-21.3786702 1.796649v13.1829255h-6.2412766z"/><path d="m215.162234 34.066117c5.557979.0078192 9.646277-4.0530319 9.679787-9.6173936.033511-5.6187766-4.097872-9.807766-9.670212-9.8044149-5.487766.0031915-9.675 4.1615426-9.719681 9.6520213-.046277 5.5696276 4.121808 9.7613298 9.710106 9.7697872m10.397872-20.9778191c.268085-1.2544149.504256-2.3629788.740426-3.47808513h4.531915v29.51617023h-4.744149c-.210638-1.0622873-.42766-2.1558511-.654255-3.3009575-7.90532 6.8554788-17.995213 4.1556383-22.33883-.915-5.004256-5.8442553-5.029787-15.1287766-.124468-20.9214893 4.375532-5.16877663 14.771808-7.89670216 22.589361-.9006383"/><path d="m120.113138 34.1127128c5.655319.0365425 9.680745-4.0000532 9.696543-9.7220745.015638-5.6055319-4.026702-9.7225532-9.568404-9.7474468-5.555745-.023617-9.649468 4.0306915-9.711543 9.6186702-.062713 5.6992021 3.940532 9.8141489 9.583404 9.8508511m15.86649-9.7729788c.013883 8.961383-6.725905 15.6408511-15.780958 15.6387766-9.063191-.001117-15.829149-6.6598404-15.848138-15.5976063-.018192-8.9339362 6.722713-15.52452132 15.871117-15.51606387 9.043245.00718085 15.744894 6.58930847 15.757979 15.47489357"/><path d="m139.199362 9.70117021c.171861-.08297872.211755-.11776595.25484-.12159574 3.601117-.32824468 3.599841-.32760638 4.56766 3.20744683.049149.1796808.150638.3451596.314042.7088298 3.003351-3.82276599 7.069309-4.37537238 11.53899-4.00452131v5.68531911c-1.260479 0-2.485213-.0325532-3.707873.0059043-4.01633.1255851-6.659681 2.5710638-6.793244 6.6036702-.169947 5.1837766-.114415 10.3766489-.154947 15.5652128-.00383.5623404-.000639 1.1235638-.000639 1.7629787h-6.018829z"/><path d="m187.820745 39.1391489h-6.001596v-29.60680847c1.129787 0 2.299468-.05234043 3.459574.03845744.269681.02106383.619149.48734043.729256.81686173.325532.9687766.548936 1.9712234.874468 3.1969149 3.071808-3.91755322 7.120213-4.45180854 11.575532-4.09484046v5.67957446c-1.10266 0-2.226064-.0170745-3.349468.0025532-4.370745.0785106-7.006915 2.4887234-7.147341 6.8438298-.162766 5.0423936-.105319 10.0921276-.140425 15.1385106-.004788.6154788 0 1.2315958 0 1.9849468"/><path d="m237 39.0965426h5.870745v-29.50292558h-5.870745z"/><path d="m173.331383 33.6521809c-3.08617-.2857979-4.726596-2.0535639-4.798404-5.1373405-.059043-2.4748404-.022341-4.9515957-.025532-7.4270744-.001596-2.0326596 0-3.7498405 0-5.9487766h8.656915v-5.5014894h-8.719149v-6.80074468l-11.587979 12.32329788h5.548085c0 .7801596-.001596 1.2325532.001596 1.7976064.028723 4.4735106-.067021 8.7507447.132447 13.2177127.154787 3.5068086 1.83351 6.2661703 5.064893 7.8856915 3.121277 1.5644681 6.454788 1.1084043 9.695745 1.0836702v-5.4735638c-1.404255 0-2.696809.0994149-3.968617-.0189893"/><path d="m261.440426 33.6521809c-3.084575-.2857979-4.726596-2.0535639-4.798405-5.1373405-.057447-2.4748404-.02234-4.9515957-.025532-7.4270744-.001595-2.0326596 0-3.7498405 0-5.9487766h8.658511v-5.5014894h-8.719149v-6.80074468l-11.588298 12.32329788h5.548404c0 .7801596-.003191 1.2325532 0 1.7976064.03032 4.4735106-.067021 8.7507447.132447 13.2177127.156383 3.5068086 1.833511 6.2661703 5.06649 7.8856915 3.121276 1.5644681 6.453191 1.1084043 9.694149 1.0836702v-5.4735638c-1.40266 0-2.695213.0994149-3.968617-.0189893"/><path d="m184.934043 51.2757447c0-1.9022873-1.41383-3.3343085-3.328724-3.3343085-1.916489 0-3.315957 1.4187766-3.315957 3.3343085 0 1.9156915 1.399468 3.3343085 3.315957 3.3343085 1.914894 0 3.328724-1.4455851 3.328724-3.3343085zm1.943617-8.7240958v13.8057447h-1.579788l-.269681-1.1529255c-.914361.8813298-2.162234 1.4056915-3.587234 1.4056915-3.073404 0-5.28351-2.2879787-5.28351-5.3340958 0-3.0596808 2.210106-5.3289893 5.28351-5.3289893 1.303724 0 2.459043.4354787 3.347873 1.1824468v-4.5781915z"/><path d="m189.842553 56.3570745h2.08883v-10.1623405h-2.08883zm-.035106-11.7371809h2.159042v-2.1550532h-2.159042z"/><path d="m193.924468 53.1301596h2.040958c.052659 1.0748936.955851 1.6362766 2.181383 1.6362766 1.121808 0 1.98351-.4752128 1.98351-1.324149 0-.9641489-1.089893-1.1845212-2.334574-1.3943617-1.693085-.2901064-3.687766-.6748404-3.687766-3.0298404 0-1.823617 1.575-3.0710106 3.938298-3.0710106 2.363297 0 3.893617 1.2850532 3.935106 3.256117h-1.978723c-.04149-.9670213-.777128-1.4856383-2.004256-1.4856383-1.155319 0-1.870213.4916489-1.870213 1.2331915 0 .8969681 1.037235 1.0740957 2.262766 1.2756383 1.718617.2878723 3.804256.6188298 3.804256 3.1243085 0 1.973617-1.645213 3.253883-4.121809 3.253883-2.471808 0-4.094681-1.3661171-4.148936-3.4744149"/><path d="m212.671277 51.2757447c0-1.9158511-1.399468-3.3343085-3.314362-3.3343085-1.916489 0-3.328724 1.4320212-3.328724 3.3343085 0 1.9022872 1.412235 3.3343085 3.328724 3.3343085 1.914894 0 3.314362-1.4189362 3.314362-3.3343085zm2.114361 0c0 3.046117-2.224468 5.3340957-5.264361 5.3340957-1.31649 0-2.484575-.4552659-3.375-1.2306383v4.6207979h-2.08883v-13.805266h1.407447l.392553 1.2478724c.919149-.9368617 2.200532-1.4955319 3.66383-1.4955319 3.039893 0 5.264361 2.2691489 5.264361 5.3286702z"/><path d="m216.553723 56.3570745h2.08883v-13.8054256h-2.08883z"/><path d="m229.169681 51.2706383c0-1.9156915-1.399468-3.3341489-3.314362-3.3341489-1.916489 0-3.328723 1.4318617-3.328723 3.3341489s1.412234 3.3343085 3.328723 3.3343085c1.914894 0 3.314362-1.4189362 3.314362-3.3343085zm2.095213-5.0813298v10.1623404h-1.685107l-.204255-1.2357446c-.920745.9312766-2.203723 1.4889893-3.684575 1.4889893-3.027127 0-5.291489-2.2881383-5.291489-5.3342553 0-3.0542553 2.264362-5.3235638 5.291489-5.3235638 1.498405 0 2.794149.5661702 3.71649 1.5129255l.244149-1.2710106z"/><path d="m243.250532 46.194734-4.669149 10.3464894c-1.14734 2.5549468-2.159043 3.4587766-4.230319 3.4587766h-1.032447v-1.8817021h.871277c1.345212 0 1.75851-.3922341 2.502127-2.0182979l.228192-.4787234-4.425-9.4265426h2.27234l3.229787 7.0859043 3.03032-7.0859043z"/><path d="m243.376596 53.1301596h2.039361c.054256 1.0748936.957447 1.6362766 2.181383 1.6362766 1.123405 0 1.985107-.4752128 1.985107-1.324149 0-.9641489-1.089894-1.1845212-2.334575-1.3943617-1.693085-.2901064-3.687766-.6748404-3.687766-3.0298404 0-1.823617 1.575-3.0710106 3.938298-3.0710106s3.893617 1.2850532 3.933511 3.256117h-1.978724c-.039893-.9670213-.775531-1.4856383-2.002659-1.4856383-1.155319 0-1.870213.4916489-1.870213 1.2331915 0 .8969681 1.037234 1.0740957 2.262766 1.2756383 1.717021.2878723 3.804255.6188298 3.804255 3.1243085 0 1.973617-1.645212 3.253883-4.121808 3.253883-2.471809 0-4.096277-1.3661171-4.148936-3.4744149"/></g><path d="m26.686117 36.5746277 4.031649 2.4307978c2.8493617 1.7175 6.4152127 1.7175 9.2644149 0l15.5835638-9.3955851-8.6644149-5.2236702z" fill="#da2a55"/><g transform="translate(0 8.457447)"><path d="m26.686117 28.1171809 8.663617-5.2236703.0007979-.0003191 2.6885107-1.621117-1.6670745.2289893c-.5198936.0743617-1.3005319.0217022-1.8209043-.0491489-1.5359042-.2092021-3.0453191-.8765426-4.1270744-1.5282447l-3.0264894-1.8252128c-1.3421809-.8093617-3.0221809-.8095212-4.3643617-.0001595l-6.4819149 3.908617z" fill="#52bde0" mask="url(#a)"/><path d="m5.18888298 22.4339362-5.18888298-3.1284575 30.717766-17.99632976c2.8493617-1.7175 6.4152127-1.7175 9.2644149 0l4.0318085 2.43079787-31.8742022 18.69398939c-2.1382978 1.2890425-4.81340422 1.2890425-6.95090422 0" fill="#f8c523" mask="url(#a)"/></g><path d="m61.2146809 22.5678191-17.2006915-10.3704255-11.4614362 6.7219149 1.2507447-.1559042c.9387766-.1169681 1.8941489-.0852128 2.8129787.1396276 1.38.3378192 2.7713298.9526596 3.6598404 1.4878724l15.2894681 9.2187766 5.6490958-3.4064362c1.3686702-.825 1.3686702-2.8096277 0-3.6354256" fill="#4eaf46"/></g></svg>