<?xml version="1.0" encoding="UTF-8"?>
<svg width="16px" height="8px" viewBox="0 0 16 8" version="1.1" xmlns="http://www.w3.org/2000/svg" xmlns:xlink="http://www.w3.org/1999/xlink">
    <!-- Generator: Sketch 53.2 (72643) - https://sketchapp.com -->
    <title>Shape</title>
    <desc>Created with Sketch.</desc>
    <g id="Input-Styles" stroke="none" stroke-width="1" fill="none" fill-rule="evenodd">
        <g id="Buttons-/-Secondary-Hover" transform="translate(-131.000000, -18.000000)" fill="#FFFFFF" fill-rule="nonzero">
            <path d="M146.894248,21.744921 L146.894248,21.744921 L143.257969,18.1264867 C143.127346,17.974708 142.897788,17.9570145 142.745259,18.0870261 C142.592731,18.2170066 142.57495,18.4454365 142.705604,18.5972152 C142.717791,18.6113638 142.731041,18.6245796 142.745259,18.6366758 L145.759737,21.6399726 L131.363619,21.6399726 C131.16281,21.6399726 131,21.8019818 131,22.0018347 C131,22.2016875 131.16281,22.3636656 131.363619,22.3636656 L145.759737,22.3636656 L142.745259,25.3633242 C142.592731,25.4933047 142.57495,25.7217346 142.705604,25.8735133 C142.836258,26.025292 143.065785,26.0429855 143.218313,25.9129739 C143.232532,25.9008465 143.245813,25.8876619 143.257969,25.8735133 L146.894279,22.255079 C147.035245,22.1139973 147.035245,21.8860649 146.894248,21.744921 Z" id="Shape"></path>
        </g>
    </g>
</svg>